<svg xmlns="http://www.w3.org/2000/svg" width="53.5" height="53.5" viewBox="0 0 53.5 53.5">
  <defs>
    <style>
      .cls-1 {
        stroke: #000;
        stroke-miterlimit: 10;
        stroke-width: 0.5px;
        fill-rule: evenodd;
      }
    </style>
  </defs>
  <path id="_Compound_Path_" data-name="&lt;Compound Path&gt;" class="cls-1" d="M961.851,786.9a2.7,2.7,0,0,0-3.808,0l-0.041.04-0.76-.749,7.391-7.4a10.756,10.756,0,0,0,13.752-12.207,0.577,0.577,0,0,0-.98-0.306l-5.185,5.185-6.337-1.037-1.008-6.337,5.185-5.185a0.576,0.576,0,0,0-.3-0.973,10.75,10.75,0,0,0-12.237,13.74l-7.4,7.4L934.67,763.634a0.572,0.572,0,0,0-.207-0.132L930.6,762.05a0.576,0.576,0,0,0-.743.743l1.463,3.871a0.517,0.517,0,0,0,.133.2l15.422,15.445-7.391,7.4a10.756,10.756,0,0,0-13.752,12.208,0.575,0.575,0,0,0,.979.3l5.185-5.185,6.337,1.037,1.014,6.337-5.162,5.185a0.577,0.577,0,0,0,.306.974A10.754,10.754,0,0,0,946.6,796.823l7.4-7.385,0.749,0.743-0.04.04a2.7,2.7,0,0,0,0,3.808l13.965,13.953a2.69,2.69,0,0,0,3.8,0l3.307-3.312a2.686,2.686,0,0,0,0-3.8Zm-1.907,10.727,1.117-1.118,5.116,5.116-1.117,1.118Zm4.678-6.3-1.527,1.527-2.437,2.437-1.527,1.527-1.624-1.619,5.5-5.5Zm-1.118,2.748,5.11,5.11-1.625,1.625-5.11-5.11Zm2.379,9.483,1.521-1.527,2.437-2.437,1.521-1.515,1.625,1.625-5.491,5.479Zm3.555-5.185-5.116-5.116,1.118-1.117,5.116,5.115Zm-10.854-26.132a0.576,0.576,0,0,0,.133-0.576,9.61,9.61,0,0,1,9.661-12.761l-4.528,4.528a0.577,0.577,0,0,0-.162.5L964.841,771a0.577,0.577,0,0,0,.478.472l7.063,1.152a0.577,0.577,0,0,0,.5-0.161l4.522-4.534a9.6,9.6,0,0,1-12.743,9.661,0.578,0.578,0,0,0-.576.139l-7.668,7.679-1.625-1.63,5.9-5.923a1.59,1.59,0,0,0,0-2.241,1.63,1.63,0,0,0-2.241,0l-5.9,5.9-1.653-1.624ZM953.4,782.334l5.876-5.9a0.439,0.439,0,0,1,.577,0,0.432,0.432,0,0,1,.126.306,0.422,0.422,0,0,1-.126.3l-5.877,5.9Zm-7.869,13.931a0.576,0.576,0,0,0-.133.576,9.608,9.608,0,0,1-9.661,12.76l4.528-4.528a0.574,0.574,0,0,0,.161-0.5L939.3,797.5a0.575,0.575,0,0,0-.478-0.478l-7.063-1.152a0.572,0.572,0,0,0-.5.161l-4.552,4.54a9.6,9.6,0,0,1,12.744-9.656,0.575,0.575,0,0,0,.576-0.138L947.7,783.1l1.624,1.63-5.905,5.922a1.585,1.585,0,0,0,2.241,2.241l5.9-5.9,1.653,1.625Zm5.185-10.094-5.877,5.9a0.438,0.438,0,0,1-.576,0,0.427,0.427,0,0,1,0-.576l5.876-5.934Zm3.664,2.034-2.443-2.437-1.423-1.423L948.07,781.9,932.337,766.14l-0.962-2.564,2.569,0.957L949.706,780.3l2.443,2.437,1.423,1.423,2.437,2.442,1.152,1.152-1.607,1.608Zm1.135,2.823,0.443-.444,2.42-2.42,0.443-.443a1.545,1.545,0,0,1,2.178,0l1.152,1.152-5.484,5.49-1.152-1.152A1.738,1.738,0,0,1,955.514,791.028Zm19.455,12.812-3.325,3.324a1.532,1.532,0,0,1-2.167,0l0,0-1.152-1.152,5.485-5.484,1.152,1.152a1.532,1.532,0,0,1,0,2.167l0,0Z" transform="translate(-925.312 -757.5)"/>
</svg>
