<svg id="Badge_00000014631790040152682030000015441566636455839419_" data-name="Badge 00000014631790040152682030000015441566636455839419 " xmlns="http://www.w3.org/2000/svg" width="52.781" height="51.624" viewBox="0 0 52.781 51.624">
  <defs>
    <style>
      .cls-1 {
        fill-rule: evenodd;
      }
    </style>
  </defs>
  <path id="_Compound_Path_" data-name="&lt;Compound Path&gt;" class="cls-1" d="M726.976,795.37a1.016,1.016,0,0,1-.471-0.116l-6.871-3.613-6.871,3.613a1.015,1.015,0,0,1-1.473-1.07l1.313-7.652-5.559-5.418a1.016,1.016,0,0,1,.562-1.731l7.683-1.116,3.435-6.958a1.057,1.057,0,0,1,1.821,0l3.435,6.961,7.681,1.116a1.014,1.014,0,0,1,.562,1.73l-5.559,5.416,1.313,7.652a1.014,1.014,0,0,1-.83,1.171h0a0.957,0.957,0,0,1-.169.015h0ZM709.934,781.1l4.468,4.356a1.018,1.018,0,0,1,.292.9l-1.056,6.143,5.524-2.9a1.013,1.013,0,0,1,.945,0l5.522,2.9-1.055-6.148a1.013,1.013,0,0,1,.292-0.9l4.468-4.356-6.175-.9a1.016,1.016,0,0,1-.761-0.555l-2.764-5.589-2.761,5.6a1.015,1.015,0,0,1-.761.554Z" transform="translate(-693.25 -758.438)"/>
  <path id="_Compound_Path_2" data-name="&lt;Compound Path&gt;" class="cls-1" d="M719.634,802.618A18.37,18.37,0,1,1,738,784.249,18.394,18.394,0,0,1,719.634,802.618Zm0-34.709a16.34,16.34,0,1,0,16.339,16.34h0a16.365,16.365,0,0,0-16.339-16.34h0Z" transform="translate(-693.25 -758.438)"/>
  <path id="_Compound_Path_3" data-name="&lt;Compound Path&gt;" class="cls-1" d="M724.694,810.071a3.667,3.667,0,0,1-1.8-.473l-2.456-1.382a1.654,1.654,0,0,0-1.605,0l-2.458,1.382a3.658,3.658,0,0,1-4.8-1.095l-1.617-2.308a1.669,1.669,0,0,0-1.444-.694l-2.818.173a3.647,3.647,0,0,1-3.845-3.069l-0.454-2.783a1.631,1.631,0,0,0-1-1.255l-2.61-1.062a3.658,3.658,0,0,1-2.137-4.44l0.8-2.7a1.652,1.652,0,0,0-.356-1.562l-1.894-2.092a3.66,3.66,0,0,1,0-4.919l1.894-2.1a1.649,1.649,0,0,0,.357-1.562l-0.8-2.7a3.656,3.656,0,0,1,2.137-4.44l2.612-1.06a1.649,1.649,0,0,0,1-1.253l0.456-2.783a3.647,3.647,0,0,1,3.846-3.07L708.513,763a1.636,1.636,0,0,0,1.443-.694l1.617-2.309a3.657,3.657,0,0,1,4.8-1.094l2.455,1.381a1.661,1.661,0,0,0,1.606,0l2.457-1.381a3.662,3.662,0,0,1,4.8,1.094l1.617,2.309a1.65,1.65,0,0,0,1.443.695l2.817-.174a3.666,3.666,0,0,1,3.845,3.069l0.456,2.791a1.647,1.647,0,0,0,1,1.253L741.484,771a3.658,3.658,0,0,1,2.139,4.441l-0.8,2.7a1.649,1.649,0,0,0,.355,1.56l1.894,2.1a3.657,3.657,0,0,1,0,4.918l-1.892,2.09a1.65,1.65,0,0,0-.357,1.563l0.8,2.7a3.656,3.656,0,0,1-2.138,4.44l-2.611,1.061a1.646,1.646,0,0,0-1,1.253l-0.455,2.783a3.662,3.662,0,0,1-3.847,3.069l-2.815-.174a1.639,1.639,0,0,0-1.445.694L727.7,808.5A3.659,3.659,0,0,1,724.694,810.071Zm-5.06-4.091a3.673,3.673,0,0,1,1.8.469l2.456,1.38a1.634,1.634,0,0,0,2.146-.492l1.616-2.309a3.7,3.7,0,0,1,3.231-1.556l2.816,0.172a1.628,1.628,0,0,0,1.719-1.37l0.457-2.782a3.691,3.691,0,0,1,2.238-2.811l2.611-1.059a1.635,1.635,0,0,0,.955-1.982l-0.8-2.7a3.7,3.7,0,0,1,.8-3.5l1.894-2.1a1.636,1.636,0,0,0,0-2.2l-1.894-2.094a3.692,3.692,0,0,1-.8-3.5l0.8-2.7a1.635,1.635,0,0,0-.955-1.983l-2.61-1.053a3.687,3.687,0,0,1-2.239-2.81l-0.454-2.784a1.649,1.649,0,0,0-1.718-1.37l-2.818.173a3.676,3.676,0,0,1-3.232-1.556l-1.617-2.309a1.636,1.636,0,0,0-2.144-.488l-2.458,1.376a3.689,3.689,0,0,1-3.594,0l-2.456-1.378a1.632,1.632,0,0,0-2.145.49l-1.617,2.306a3.668,3.668,0,0,1-3.23,1.559l-2.818-.175a1.649,1.649,0,0,0-1.717,1.37l-0.456,2.791a3.689,3.689,0,0,1-2.24,2.805l-2.611,1.06a1.634,1.634,0,0,0-.955,1.981l0.8,2.7a3.7,3.7,0,0,1-.8,3.5L695.7,783.15a1.632,1.632,0,0,0,0,2.2l1.894,2.1a3.688,3.688,0,0,1,.8,3.5l-0.8,2.7a1.633,1.633,0,0,0,.955,1.981l2.61,1.057a3.7,3.7,0,0,1,2.239,2.81l0.455,2.783a1.638,1.638,0,0,0,1.718,1.37l2.817-.172a3.655,3.655,0,0,1,3.23,1.555l1.619,2.31a1.632,1.632,0,0,0,2.145.489l2.457-1.377A3.662,3.662,0,0,1,719.634,805.98Z" transform="translate(-693.25 -758.438)"/>
</svg>
