<svg id="_Group_" data-name="&lt;Group&gt;" xmlns="http://www.w3.org/2000/svg" width="61.75" height="58.282" viewBox="0 0 61.75 58.282">
  <defs>
    <style>
      .cls-1 {
        fill-rule: evenodd;
      }
    </style>
  </defs>
  <path id="_Compound_Path_" data-name="&lt;Compound Path&gt;" class="cls-1" d="M702.823,618.811a10.306,10.306,0,1,0,10.305,10.3A10.306,10.306,0,0,0,702.823,618.811Zm0,19.466a9.161,9.161,0,1,1,9.16-9.161A9.161,9.161,0,0,1,702.823,638.277Z" transform="translate(-683.344 -591.406)"/>
  <path id="_Compound_Path_2" data-name="&lt;Compound Path&gt;" class="cls-1" d="M703.968,609.651h-2.29A1.466,1.466,0,0,0,700.3,610.8l-0.687,3.435a2.854,2.854,0,0,0-.058.355,14.893,14.893,0,0,0-4.683,1.935l-0.3-.206-2.942-1.969a1.39,1.39,0,0,0-.767-0.218,1.436,1.436,0,0,0-1,.389l-1.626,1.649a1.455,1.455,0,0,0-.171,1.764l1.969,2.942c0.057,0.092.138,0.2,0.218,0.3a14.611,14.611,0,0,0-1.947,4.683l-0.378.057-3.435.687a1.468,1.468,0,0,0-1.145,1.374v2.29a1.465,1.465,0,0,0,1.145,1.374l3.435,0.688,0.355,0.057a14.893,14.893,0,0,0,1.935,4.683l-0.206.3-1.946,2.942a1.455,1.455,0,0,0,.171,1.764l1.615,1.626a1.48,1.48,0,0,0,1.008.389,1.323,1.323,0,0,0,.755-0.218l2.954-1.969,0.3-.206a14.891,14.891,0,0,0,4.672,1.935,0.73,0.73,0,0,0,.057.355l0.7,3.435a1.466,1.466,0,0,0,1.374,1.168h2.29a1.442,1.442,0,0,0,1.362-1.145l0.7-3.435a0.825,0.825,0,0,1,.057-0.355,14.94,14.94,0,0,0,4.683-1.935l0.286,0.206,2.955,1.969a1.346,1.346,0,0,0,.755.218,1.458,1.458,0,0,0,1.008-.389l1.614-1.626a1.467,1.467,0,0,0,.184-1.764l-1.97-2.965a0.779,0.779,0,0,0-.217-0.3,14.618,14.618,0,0,0,1.946-4.683l0.378-.057,3.435-.688a1.465,1.465,0,0,0,1.145-1.374v-2.29a1.477,1.477,0,0,0-1.145-1.374l-3.435-.687-0.355-.057a14.594,14.594,0,0,0-1.935-4.683l0.217-.286,1.97-2.954a1.489,1.489,0,0,0-.172-1.764l-1.626-1.626a1.432,1.432,0,0,0-1-.389,1.353,1.353,0,0,0-.767.218l-2.954,1.969-0.287.206a14.893,14.893,0,0,0-4.683-1.935,2.889,2.889,0,0,0-.091-0.378l-0.7-3.435A1.442,1.442,0,0,0,703.968,609.651Zm0,1.145a0.358,0.358,0,0,1,.252.206l0.687,3.435q0.036,0.153.057,0.309l0.114,0.768,0.756,0.171a13.508,13.508,0,0,1,4.317,1.8l0.664,0.412,0.618-.458H711.5l0.2-.149,2.954-1.912a0.531,0.531,0,0,1,.126,0,0.3,0.3,0,0,1,.194.057l1.592,1.546a0.331,0.331,0,0,1,0,.309l-1.97,2.955-0.183.251-0.458.63,0.413,0.664a13.515,13.515,0,0,1,1.8,4.317l0.172,0.756,0.767,0.114h0.241l3.435,0.687a0.356,0.356,0,0,1,.366.309v2.29a0.354,0.354,0,0,1-.206.252l-3.435.687H717.25l-0.767.115-0.172.756a13.48,13.48,0,0,1-1.8,4.316l-0.4.687,0.469,0.63,0.16,0.229,1.97,2.954a0.356,0.356,0,0,1,0,.321l-1.741,1.649a0.321,0.321,0,0,1-.194,0,0.225,0.225,0,0,1-.126,0l-2.954-1.97-0.252-.183-0.63-.458-0.653.412a13.711,13.711,0,0,1-4.317,1.8l-0.767.206-0.126.767a1.294,1.294,0,0,1,0,.264l-0.687,3.435a0.332,0.332,0,0,1-.3.309h-2.29a0.31,0.31,0,0,1-.241-0.206l-0.7-3.435v-0.3l-0.206-.813-0.756-.172a13.751,13.751,0,0,1-4.317-1.8l-0.653-.413-0.629.458h-0.069a1.9,1.9,0,0,1-.2.138l-2.954,1.969h-0.114a0.3,0.3,0,0,1-.2,0l-1.569-1.6a0.354,0.354,0,0,1,0-.32l1.981-2.955a1.55,1.55,0,0,1,.138-0.194l0.458-.63-0.424-.664a13.545,13.545,0,0,1-1.8-4.3l-0.171-.79-0.779-.115h-0.3l-3.435-.687a0.332,0.332,0,0,1-.252-0.344v-2.29a0.309,0.309,0,0,1,.206-0.24l3.435-.7h0.3l0.767-.126,0.172-.756a13.73,13.73,0,0,1,1.8-4.317l0.412-.653-0.458-.629v-0.069l-0.138-.195-1.912-3a0.331,0.331,0,0,1,0-.309l1.592-1.6a0.321,0.321,0,0,1,.2-0.057,0.436,0.436,0,0,1,.125,0l2.955,1.969,0.194,0.149H694.2l0.629,0.458,0.664-.412a13.618,13.618,0,0,1,4.317-1.8l0.756-.171,0.114-.768v-0.3l0.687-3.435a0.378,0.378,0,0,1,.31-0.218h2.29Z" transform="translate(-683.344 -591.406)"/>
  <path id="_Compound_Path_3" data-name="&lt;Compound Path&gt;" class="cls-1" d="M702.823,624.536a4.649,4.649,0,1,0,4.58,4.717v-0.137A4.581,4.581,0,0,0,702.823,624.536Zm0,8.016a3.436,3.436,0,1,1,3.435-3.436A3.435,3.435,0,0,1,702.823,632.552Z" transform="translate(-683.344 -591.406)"/>
  <path id="_Compound_Path_4" data-name="&lt;Compound Path&gt;" class="cls-1" d="M743.311,602.048h-4.019a12.3,12.3,0,0,0-1.271-1.935c0.068-.149.137-0.3,0.183-0.424l1.374-3.274a1.477,1.477,0,0,0-.5-1.649l-1.9-1.34a1.439,1.439,0,0,0-1.064-.183,1.317,1.317,0,0,0-.7.355l-2.53,2.5-0.31.332a11.823,11.823,0,0,0-2.29-.458l-0.16-.435-1.34-3.286a1.441,1.441,0,0,0-1.557-.836l-2.29.435a1.454,1.454,0,0,0-1.145,1.363v4.018a12.233,12.233,0,0,0-1.935,1.272l-0.424-.184-3.274-1.374a1.382,1.382,0,0,0-.779-0.068,1.444,1.444,0,0,0-.916.572l-1.237,1.9a1.465,1.465,0,0,0,.2,1.763l2.5,2.531,0.332,0.309a11.823,11.823,0,0,0-.458,2.29l-0.435.16-3.309,1.34a1.443,1.443,0,0,0-.836,1.557l0.435,2.29a1.465,1.465,0,0,0,1.363,1.145h4.019a11.51,11.51,0,0,0,1.282,1.935,3.309,3.309,0,0,0-.194.424l-1.375,3.275a1.465,1.465,0,0,0,.5,1.694l1.9,1.237a1.5,1.5,0,0,0,1.065.195,1.415,1.415,0,0,0,.7-0.367l2.519-2.5a4.372,4.372,0,0,0,.321-0.332,11.675,11.675,0,0,0,2.29.458l0.16,0.435,1.352,3.286a1.442,1.442,0,0,0,1.557.836l2.29-.435a1.454,1.454,0,0,0,1.145-1.363V617.5a11.593,11.593,0,0,0,1.935-1.271l0.424,0.194,3.274,1.363a1.3,1.3,0,0,0,.779.068,1.444,1.444,0,0,0,.916-0.572l1.225-1.9a1.465,1.465,0,0,0-.194-1.763l-2.5-2.519a4.372,4.372,0,0,0-.332-0.321,11.6,11.6,0,0,0,.458-2.29l0.435-.16,3.287-1.351a1.444,1.444,0,0,0,.836-1.558l-0.436-2.29A1.454,1.454,0,0,0,743.311,602.048Zm0.733,3.6a0.336,0.336,0,0,1-.149.287l-3.286,1.339-0.378.149-0.687.229-0.081.733a9.949,9.949,0,0,1-.412,2.05l-0.217.7,0.549,0.493,0.287,0.274,2.5,2.519a0.323,0.323,0,0,1,0,.321l-1.306,1.9a0.322,0.322,0,0,1-.171.091,0.381,0.381,0,0,1-.126,0l-3.275-1.351-0.367-.16-0.664-.321-0.561.458a10.624,10.624,0,0,1-1.74,1.145l-0.653.332v4.683a0.33,0.33,0,0,1-.206.252l-2.29.436a0.312,0.312,0,0,1-.275-0.149l-1.282-3.241a1.592,1.592,0,0,0-.138-0.389l-0.251-.687-0.722-.069a9.838,9.838,0,0,1-2.038-.412l-0.7-.218-0.493.55-0.275.286-2.53,2.5a0.2,0.2,0,0,1-.115,0,0.448,0.448,0,0,1-.206,0l-1.889-1.283a0.309,0.309,0,0,1-.092-0.309l1.34-3.286c0.046-.115.1-0.241,0.172-0.378l0.309-.653-0.458-.561a10.624,10.624,0,0,1-1.145-1.74l-0.332-.653h-4.672a0.334,0.334,0,0,1-.252-0.206l-0.435-2.29a0.308,0.308,0,0,1,.149-0.275l3.229-1.282,0.389-.138,0.687-.24,0.08-.733a9.906,9.906,0,0,1,.413-2.038l0.217-.7-0.549-.492-0.287-.275-2.5-2.53a0.333,0.333,0,0,1,0-.31l1.283-1.9a0.275,0.275,0,0,1,.183-0.092,0.154,0.154,0,0,1,.126,0l3.286,1.34,0.366,0.172,0.653,0.309,0.573-.458a9.526,9.526,0,0,1,1.74-1.145l0.641-.344V593.2a0.332,0.332,0,0,1,.206-0.252l2.29-.435a0.32,0.32,0,0,1,.275.149l1.351,3.286a1.277,1.277,0,0,0,.149.389l0.241,0.687,0.721,0.069a10.083,10.083,0,0,1,2.05.412l0.7,0.218,0.492-.538a2.352,2.352,0,0,1,.275-0.3l2.519-2.5a0.224,0.224,0,0,1,.115,0,0.255,0.255,0,0,1,.206,0l1.9,1.271a0.342,0.342,0,0,1,.091.309l-1.42,3.275-0.16.366-0.321.653,0.459,0.572a10.259,10.259,0,0,1,1.145,1.741l0.343,0.652h4.683a0.313,0.313,0,0,1,.241.207Z" transform="translate(-683.344 -591.406)"/>
  <path id="_Compound_Path_5" data-name="&lt;Compound Path&gt;" class="cls-1" d="M728.288,602.872a4.58,4.58,0,1,0,5.362,3.635l0-.016A4.581,4.581,0,0,0,728.288,602.872Zm1.523,7.924a3.43,3.43,0,1,1,.122-0.023Z" transform="translate(-683.344 -591.406)"/>
  <path id="_Compound_Path_6" data-name="&lt;Compound Path&gt;" class="cls-1" d="M723.49,601.693a8.015,8.015,0,1,0,11.336,0,8.015,8.015,0,0,0-11.336,0h0Zm10.523,10.523a6.87,6.87,0,1,1-.006-9.716l0.006,0.006A6.878,6.878,0,0,1,734.013,612.216Z" transform="translate(-683.344 -591.406)"/>
  <path id="_Compound_Path_7" data-name="&lt;Compound Path&gt;" class="cls-1" d="M743.734,640.246A1.557,1.557,0,0,0,745.051,639a1.523,1.523,0,0,0-.778-1.511l-0.115-.058-2.29-.939-0.114-.068a9.28,9.28,0,0,0-.733-2.931l0.137-.161,1.512-1.923a1.57,1.57,0,0,0,.057-1.81,1.517,1.517,0,0,0-.458-0.389,1.572,1.572,0,0,0-1.283-.092l-2.29.928-0.183.092a9.652,9.652,0,0,0-1.58-1.145c-0.332-.172-0.676-0.332-1.019-0.47v-0.206l-0.229-2.416a1.56,1.56,0,0,0-.813-1.145,1.5,1.5,0,0,0-.435-0.149,1.546,1.546,0,0,0-1.569.893l-0.939,2.29-0.068.195a9.324,9.324,0,0,0-2.943.733l-0.149-.138-1.9-1.523a1.1,1.1,0,0,0-.206-0.137,1.58,1.58,0,0,0-1.6.08,1.535,1.535,0,0,0-.481,1.741l0.928,2.29,0.08,0.183a8.9,8.9,0,0,0-1.558,2.6h-0.206l-2.427.241a1.467,1.467,0,0,0-.538,2.759h0.114l2.29,0.939,0.2,0.069a9.018,9.018,0,0,0,.733,2.942l-0.149.161-1.534,1.935a1.545,1.545,0,0,0,0,1.809,1.363,1.363,0,0,0,.458.389,1.531,1.531,0,0,0,1.282.092l2.29-.928,0.183-.08a8.663,8.663,0,0,0,1.592,1.145,8.1,8.1,0,0,0,1.019.47,1.181,1.181,0,0,0,0,.206l0.229,2.427a1.553,1.553,0,0,0,.8,1.145,1.2,1.2,0,0,0,.435.149,1.556,1.556,0,0,0,1.568-.881l0.928-2.291a0.284,0.284,0,0,1,.068-0.206,8.706,8.706,0,0,0,2.943-.732l0.161,0.148,1.854,1.5,0.2,0.126a1.465,1.465,0,0,0,2.1-1.82l-0.939-2.29-0.081-.184a8.622,8.622,0,0,0,1.145-1.591,8.939,8.939,0,0,0,.47-1.019h0.217Zm-2.519-.916h-0.9l-0.264.676a7.359,7.359,0,0,1-.412.893,7.624,7.624,0,0,1-.95,1.385l-0.47.55L738.5,643.5l0.057,0.1,0.927,2.29a0.432,0.432,0,0,1-.023.4,0.424,0.424,0,0,1-.389,0l-1.9-1.5-0.08-.08-0.549-.481-0.664.286a8.477,8.477,0,0,1-2.577.653l-0.824-.023-0.252.687v0.149l-0.928,2.29a0.432,0.432,0,0,1-.343.194H730.9a0.476,0.476,0,0,1-.218-0.263l-0.229-2.416v-0.9l-0.675-.264a6.635,6.635,0,0,1-.894-0.412,7.674,7.674,0,0,1-1.385-.95l-0.63-.516-0.675.309h-0.069l-2.29.928a0.46,0.46,0,0,1-.4.023,0.439,0.439,0,0,1,0-.378l1.512-1.912,0.068-.08,0.481-.55-0.286-.664a8.1,8.1,0,0,1-.63-2.668v-0.721l-0.675-.252h-0.115l-2.29-.928a0.32,0.32,0,0,1,.092-0.618l2.416-.229h0.9l0.264-.664a8.106,8.106,0,0,1,.412-0.893,7.122,7.122,0,0,1,.962-1.386l0.435-.652-0.3-.665v-0.148l-0.927-2.29a0.387,0.387,0,0,1,.1-0.378,0.484,0.484,0,0,1,.377,0l1.775,1.545,0.092,0.069,0.538,0.481,0.676-.286a8,8,0,0,1,2.656-.619l0.721-.057,0.264-.675v-0.115l0.927-2.29a0.485,0.485,0,0,1,.344-0.2,0.45,0.45,0,0,1,.206.264l0.24,2.416v0.9l0.676,0.264a7.359,7.359,0,0,1,.893.412,7.674,7.674,0,0,1,1.385.95l0.561,0.481,0.665-.309h0.148l2.291-.927a0.435,0.435,0,0,1,.458.022,0.173,0.173,0,0,1,.08.069,0.393,0.393,0,0,1,0,.39l-1.58,1.832-0.069.08-0.481.549,0.286,0.664a7.822,7.822,0,0,1,.619,2.668l0.057,0.722,0.675,0.252h0.115l2.29,0.927a0.468,0.468,0,0,1,.183.344,0.411,0.411,0,0,1-.286.274Z" transform="translate(-683.344 -591.406)"/>
  <path id="_Compound_Path_8" data-name="&lt;Compound Path&gt;" class="cls-1" d="M734.506,633.616a4.008,4.008,0,1,0,1.6,5.438l0.006-.01A4.009,4.009,0,0,0,734.506,633.616Zm-3.275,6.035a2.863,2.863,0,1,1,3.882-1.147v0A2.863,2.863,0,0,1,731.231,639.651Z" transform="translate(-683.344 -591.406)"/>
</svg>
