<svg id="_Group_" data-name="&lt;Group&gt;" xmlns="http://www.w3.org/2000/svg" width="50.594" height="51.406" viewBox="0 0 50.594 51.406">
  <defs>
    <style>
      .cls-1 {
        fill-rule: evenodd;
      }
    </style>
  </defs>
  <path id="_Compound_Path_" data-name="&lt;Compound Path&gt;" class="cls-1" d="M939.275,603.418a2.477,2.477,0,0,0,2.34,1.714h6.369a2.494,2.494,0,0,0,2.34-1.714,11.512,11.512,0,0,1,2.16-3.789,2.57,2.57,0,0,0,.857-2.434,2.444,2.444,0,0,0-1.611-1.869c-2.572-.857-4.861-0.566-6.6.857a0.854,0.854,0,0,1-1.045,0,6.715,6.715,0,0,0-6.6-.857,2.434,2.434,0,0,0-1.654,1.869,2.57,2.57,0,0,0,.857,2.434A13.574,13.574,0,0,1,939.275,603.418Zm-1.766-5.9a0.746,0.746,0,0,1,.514-0.566,7.085,7.085,0,0,1,2.229-.4,4.288,4.288,0,0,1,2.8.935,2.573,2.573,0,0,0,3.189,0c1.285-1.029,2.965-1.209,4.988-.54a0.735,0.735,0,0,1,.506.566,0.855,0.855,0,0,1-.291.805c-1.312,1.106-2.486,3.918-2.7,4.56a0.782,0.782,0,0,1-.72.532h-6.412a0.771,0.771,0,0,1-.72-0.532,14.745,14.745,0,0,0-3.086-4.56A0.856,0.856,0,0,1,937.509,597.521Z" transform="translate(-925.5 -594.844)"/>
  <path id="_Path_" data-name="&lt;Path&gt;" class="cls-1" d="M952.081,606.847a0.858,0.858,0,0,0-.857-0.858,0.776,0.776,0,0,1-.857,0H940.081a0.858,0.858,0,1,0,0,1.715h10.286v0.857h-9.429a0.857,0.857,0,0,0,0,1.714h10.226a4.285,4.285,0,0,0,5.751-.248,0.857,0.857,0,0,0,0-1.213l0,0a0.857,0.857,0,0,0-1.208,0,2.639,2.639,0,0,1-3.626,0v-1.962Z" transform="translate(-925.5 -594.844)"/>
  <path id="_Path_2" data-name="&lt;Path&gt;" class="cls-1" d="M943.509,617.133c-5.494,0-12,6.968-12,12.857a0.857,0.857,0,0,0,1.714,0c0-4.894,5.769-11.143,10.286-11.143A0.857,0.857,0,0,0,943.509,617.133Z" transform="translate(-925.5 -594.844)"/>
  <path id="_Compound_Path_2" data-name="&lt;Compound Path&gt;" class="cls-1" d="M967.51,622.276a27.341,27.341,0,0,0-3,.171,16.911,16.911,0,0,0-4.594-5.409l-6.172-4.191a7.643,7.643,0,0,0-4.5-1.715h-6.669a7.408,7.408,0,0,0-4.543,1.56l-6.06,4.441a16.783,16.783,0,0,0-4.758,20.692c1.295,2.571,3.429,5.657,6.429,5.854h17.384a6.857,6.857,0,0,0,11.2-.746,18.534,18.534,0,0,0,5.28.746c4.123,0,8.572-1.311,8.572-3.429v-4.688h-0.069a1.453,1.453,0,0,0,.069-0.429v-9.857C976.082,622.9,970.7,622.276,967.51,622.276Zm6.8,2.991-0.06.052-0.12.085-0.2.112-0.2.094a2.454,2.454,0,0,1-.308.12l-0.275.1-0.411.12-0.352.094-0.531.12-0.42.077a5,5,0,0,0-.66.1l-0.463.06c-0.274,0-.566.052-0.857,0.077h-3.875a3.076,3.076,0,0,1-.857-0.077l-0.463-.06a3.3,3.3,0,0,1-.668-0.1l-0.412-.077-0.531-.12a3.321,3.321,0,0,1-.352-0.094l-0.385-.12L961.6,625.7a2.409,2.409,0,0,1-.309-0.12l-0.231-.068a1.379,1.379,0,0,1-.2-0.112,0.437,0.437,0,0,1-.12-0.085,0.314,0.314,0,0,1-.051-0.052l0.12-.086,0.257-.145,0.18-.077,0.223-.095,0.3-.111,0.24-.077,0.634-.172,0.343-.068,0.437-.086,0.523-.086a23.521,23.521,0,0,1,3.566-.274C971.556,623.99,973.827,624.847,974.307,625.267Zm-13.071,7.055,0.231,0.094,0.446,0.146,0.248,0.085,0.557,0.155,0.2,0.06,0.8,0.18h0.18l0.66,0.111h0.291l0.583,0.069h0.309l0.608,0.051h2.272l0.6-.043h0.317l0.574-.068h0.3l0.652-.112h0.18l0.8-.18,0.214-.06,0.54-.154,0.257-.086,0.455-.163,0.24-.094,0.445-.206,0.138-.068v3.026c-0.2.488-2.418,1.568-5.906,1.714h-0.96a16.089,16.089,0,0,1-5.143-.8c-0.1-.18-0.206-0.352-0.326-0.523l-0.077-.026c-0.112-.154-0.215-0.3-0.335-0.437l-0.111-.12c-0.111-.12-0.214-0.24-0.326-0.351l-0.18-.163c-0.1-.094-0.2-0.18-0.308-0.266v-2.049l0.145,0.069Zm-11.324,9.669H933.755c-1.715-.121-3.429-1.86-5.015-4.921a15.077,15.077,0,0,1,4.286-18.574l6.069-4.423a5.712,5.712,0,0,1,3.48-1.226h6.669a6.007,6.007,0,0,1,3.5,1.388l6.172,4.192a15.088,15.088,0,0,1,3.8,4.286,7.947,7.947,0,0,0-2.854,1.063l-0.06.043-0.3.248-0.1.112a1.543,1.543,0,0,0-.188.231,2.319,2.319,0,0,0-.112.206c-0.034.068-.06,0.128-0.086,0.188a1.406,1.406,0,0,0-.077.463v7.792a6.811,6.811,0,0,0-.857-0.292h-0.12a6.533,6.533,0,0,0-.96-0.205h-1.089a6.215,6.215,0,0,0-.9.12h-0.068a5.867,5.867,0,0,0-.78.231l-0.283.1a6.239,6.239,0,0,0-.737.343l-0.266.154-0.48.326-0.283.206c-0.2.162-.385,0.342-0.574,0.522l-0.223.258a4.48,4.48,0,0,0-.368.445l-0.189.249a7.119,7.119,0,0,0-.412.694l-0.137.275c-0.094.214-.18,0.428-0.257,0.651a1.174,1.174,0,0,0-.068.188,6.019,6.019,0,0,0-.206.858v0.257c0,0.2-.043.4-0.052,0.609v0.719A8.011,8.011,0,0,0,949.912,641.991Zm6.455,2.571a5.143,5.143,0,0,1-5.143-5.083v-0.72a2.225,2.225,0,0,1,0-.231,4.244,4.244,0,0,1,.154-0.66V637.8a4.426,4.426,0,0,1,.257-0.626v-0.06a5.314,5.314,0,0,1,2.083-2.177,5.152,5.152,0,0,1,.626-0.291l0.163-.06a4.876,4.876,0,0,1,.583-0.172h0.085a5.681,5.681,0,0,1,.746-0.086h0.137a5.6,5.6,0,0,1,.755,0h0.042a5.218,5.218,0,0,1,1.552.455,4.618,4.618,0,0,1,.668.377l0.086,0.068a3.805,3.805,0,0,1,.412.326l0.094,0.086,0.531,0.351v0.043a5.047,5.047,0,0,1,.7,1.046l0.128,0.257c0.06,0.154.12,0.309,0.172,0.454a4.838,4.838,0,0,1,.128.472,0.079,0.079,0,0,0,0,.043,4.688,4.688,0,0,1,.069.471,0.079,0.079,0,0,1,0,.043v1.149c0,0.025-.043.308-0.077,0.463v0.051a4.412,4.412,0,0,1-.129.48c-0.06.163-.12,0.326-0.2,0.489A5.142,5.142,0,0,1,956.367,644.562Zm11.143-2.571a16.615,16.615,0,0,1-4.577-.609,7.434,7.434,0,0,0,.2-0.857V640.31a6.138,6.138,0,0,0,.069-0.857,5.589,5.589,0,0,0,0-.66v-0.24a0.729,0.729,0,0,0-.052-0.325,24.74,24.74,0,0,0,4.4.368,19.442,19.442,0,0,0,6.858-1.08v2.734C974.162,640.748,971.556,641.991,967.51,641.991Zm0-10.287c-4.029,0-6.626-1.234-6.857-1.714V627.2h0.068a6.572,6.572,0,0,0,.652.248c0.231,0.077.48,0.146,0.728,0.206l0.249,0.06,0.557,0.12,0.283,0.052,0.626,0.1h0.2c0.283,0.043.557,0.069,0.857,0.095h0.206l0.625,0.043h3.583l0.635-.052h0.2l0.857-.094h0.206l0.625-.1,0.275-.051,0.566-.121,0.248-.059q0.385-.095.746-0.206c0.223-.069.428-0.154,0.634-0.24h0.077v2.734C974.162,630.462,971.556,631.7,967.51,631.7Z" transform="translate(-925.5 -594.844)"/>
</svg>
